<?xml version="1.0" encoding="utf-8"?>
<!-- Generator: Adobe Illustrator 16.0.0, SVG Export Plug-In . SVG Version: 6.00 Build 0)  -->
<!DOCTYPE svg PUBLIC "-//W3C//DTD SVG 1.1//EN" "http://www.w3.org/Graphics/SVG/1.1/DTD/svg11.dtd">
<svg version="1.1" id="Capa_1" xmlns="http://www.w3.org/2000/svg" xmlns:xlink="http://www.w3.org/1999/xlink" x="0px" y="0px"
	 width="841.889px" height="595.281px" viewBox="0 0 841.889 595.281" enable-background="new 0 0 841.889 595.281"
	 xml:space="preserve">
<g id="XMLID_6_">
	<g id="XMLID_43_">
		<path fill="#FFFFFF" d="M74.284,248.117C33.323,248.117,0,214.793,0,173.833c0-40.961,33.323-74.284,74.284-74.284
			c40.96,0,74.284,33.323,74.284,74.284C148.569,214.793,115.244,248.117,74.284,248.117z M74.284,139.167
			c-19.111,0-34.666,15.55-34.666,34.666c0,19.115,15.555,34.666,34.666,34.666c19.11,0,34.666-15.551,34.666-34.666
			C108.95,154.717,93.395,139.167,74.284,139.167z"/>
	</g>
	<g id="XMLID_42_">
		<path fill="#FFFFFF" d="M128.76,421.447c-40.961,0-74.285-33.324-74.285-74.283c0-40.961,33.324-74.285,74.285-74.285
			c40.96,0,74.284,33.324,74.284,74.285C203.044,388.123,169.72,421.447,128.76,421.447z M128.76,312.498
			c-19.111,0-34.666,15.555-34.666,34.666s15.555,34.666,34.666,34.666c19.11,0,34.666-15.555,34.666-34.666
			S147.87,312.498,128.76,312.498z"/>
	</g>
	<g id="XMLID_41_">
		<path fill="#FFFFFF" d="M326.851,411.543c-40.96,0-74.284-33.324-74.284-74.283c0-40.961,33.324-74.286,74.284-74.286
			c40.961,0,74.285,33.324,74.285,74.286C401.136,378.219,367.812,411.543,326.851,411.543z M326.851,302.594
			c-19.11,0-34.666,15.555-34.666,34.666c0,19.109,15.556,34.666,34.666,34.666c19.111,0,34.666-15.557,34.666-34.666
			C361.517,318.148,345.962,302.594,326.851,302.594z"/>
	</g>
	<g id="XMLID_40_">
		<path fill="#FFFFFF" d="M594.275,332.306c-40.96,0-74.284-33.324-74.284-74.285c0-40.96,33.324-74.284,74.284-74.284
			c40.961,0,74.284,33.324,74.284,74.284C668.559,298.982,635.236,332.306,594.275,332.306z M594.275,223.356
			c-19.11,0-34.666,15.551-34.666,34.666c0,19.116,15.556,34.666,34.666,34.666c19.111,0,34.666-15.55,34.666-34.666
			C628.941,238.906,613.386,223.356,594.275,223.356z"/>
	</g>
	<g id="XMLID_39_">
		<path fill="#FFFFFF" d="M505.134,495.732c-40.961,0-74.284-33.324-74.284-74.285c0-40.959,33.323-74.283,74.284-74.283
			c40.96,0,74.284,33.324,74.284,74.283C579.418,462.408,546.094,495.732,505.134,495.732z M505.134,386.781
			c-19.111,0-34.666,15.557-34.666,34.666c0,19.111,15.555,34.666,34.666,34.666c19.11,0,34.666-15.555,34.666-34.666
			C539.8,402.338,524.244,386.781,505.134,386.781z"/>
	</g>
	<g id="XMLID_38_">
		<path fill="#FFFFFF" d="M767.605,352.115c-40.96,0-74.284-33.324-74.284-74.284c0-40.961,33.324-74.284,74.284-74.284
			c40.961,0,74.284,33.323,74.284,74.284C841.889,318.791,808.566,352.115,767.605,352.115z M767.605,243.165
			c-19.11,0-34.666,15.55-34.666,34.666c0,19.115,15.556,34.667,34.666,34.667c19.111,0,34.666-15.551,34.666-34.667
			C802.271,258.715,786.716,243.165,767.605,243.165z"/>
	</g>
</g>
<g>
	<path fill="#FFFFFF" d="M234.145,229.253c-21.694,0-39.343-17.649-39.343-39.343s17.649-39.343,39.343-39.343
		s39.343,17.649,39.343,39.343S255.839,229.253,234.145,229.253z M234.145,162.567c-15.077,0-27.343,12.266-27.343,27.343
		c0,15.077,12.266,27.343,27.343,27.343c15.077,0,27.343-12.266,27.343-27.343C261.488,174.833,249.221,162.567,234.145,162.567z"/>
</g>
<g>
	<path fill="#FFFFFF" d="M480.649,138.892c-21.694,0-39.344-17.649-39.344-39.343s17.649-39.343,39.344-39.343
		c21.693,0,39.342,17.649,39.342,39.343S502.342,138.892,480.649,138.892z M480.649,72.206c-15.077,0-27.344,12.266-27.344,27.343
		c0,15.077,12.267,27.343,27.344,27.343c15.076,0,27.342-12.266,27.342-27.343C507.99,84.472,495.725,72.206,480.649,72.206z"/>
</g>
<g>
	<path fill="#FFFFFF" d="M460.288,287.461c-21.694,0-39.344-17.649-39.344-39.343s17.649-39.343,39.344-39.343
		c21.693,0,39.342,17.649,39.342,39.343S481.982,287.461,460.288,287.461z M460.288,220.775c-15.077,0-27.344,12.266-27.344,27.343
		c0,15.077,12.267,27.343,27.344,27.343c15.076,0,27.342-12.266,27.342-27.343C487.63,233.041,475.365,220.775,460.288,220.775z"/>
</g>
<g>
	<path fill="#FFFFFF" d="M361.794,213.176c-21.694,0-39.344-17.649-39.344-39.343s17.649-39.343,39.344-39.343
		c21.693,0,39.342,17.649,39.342,39.343S383.488,213.176,361.794,213.176z M361.794,146.49c-15.077,0-27.344,12.266-27.344,27.343
		c0,15.077,12.267,27.343,27.344,27.343c15.076,0,27.342-12.266,27.342-27.343C389.136,158.756,376.87,146.49,361.794,146.49z"/>
</g>
<g>
	<path fill="#FFFFFF" d="M668.56,460.792c-21.694,0-39.344-17.649-39.344-39.343c0-21.694,17.649-39.344,39.344-39.344
		c21.693,0,39.342,17.649,39.342,39.344C707.902,443.142,690.253,460.792,668.56,460.792z M668.56,394.105
		c-15.077,0-27.344,12.267-27.344,27.344s12.267,27.343,27.344,27.343c15.076,0,27.342-12.266,27.342-27.343
		S683.636,394.105,668.56,394.105z"/>
</g>
<g>
	<path fill="#FFFFFF" d="M235.319,516.689c-21.694,0-39.344-17.649-39.344-39.343c0-21.694,17.649-39.344,39.344-39.344
		c21.693,0,39.342,17.649,39.342,39.344C274.66,499.04,257.012,516.689,235.319,516.689z M235.319,450.003
		c-15.077,0-27.344,12.267-27.344,27.344s12.267,27.343,27.344,27.343c15.076,0,27.342-12.266,27.342-27.343
		S250.395,450.003,235.319,450.003z"/>
</g>
<g>
	<path fill="#FFFFFF" d="M679.865,151.804c-21.694,0-39.344-17.649-39.344-39.343c0-21.694,17.649-39.344,39.344-39.344
		c21.693,0,39.342,17.649,39.342,39.344C719.206,134.155,701.558,151.804,679.865,151.804z M679.865,85.117
		c-15.077,0-27.344,12.266-27.344,27.344c0,15.077,12.267,27.343,27.344,27.343c15.076,0,27.342-12.266,27.342-27.343
		C707.206,97.384,694.941,85.117,679.865,85.117z"/>
</g>
</svg>
