<?xml version="1.0" encoding="utf-8"?>
<!-- Generator: Adobe Illustrator 16.0.0, SVG Export Plug-In . SVG Version: 6.00 Build 0)  -->
<!DOCTYPE svg PUBLIC "-//W3C//DTD SVG 1.1//EN" "http://www.w3.org/Graphics/SVG/1.1/DTD/svg11.dtd">
<svg version="1.1" id="Capa_1" xmlns="http://www.w3.org/2000/svg" xmlns:xlink="http://www.w3.org/1999/xlink" x="0px" y="0px"
	 width="841.889px" height="595.281px" viewBox="0 0 841.889 595.281" enable-background="new 0 0 841.889 595.281"
	 xml:space="preserve">
<g id="XMLID_46_">
	<g id="XMLID_81_">
		<path fill="#FFFFFF" d="M70.571,228.308c-32.77,0-59.428-26.658-59.428-59.428s26.658-59.428,59.428-59.428
			c32.769,0,59.427,26.658,59.427,59.428S103.339,228.308,70.571,228.308z M70.571,119.358c-27.308,0-49.523,22.216-49.523,49.522
			s22.216,49.523,49.523,49.523c27.307,0,49.522-22.217,49.522-49.523S97.877,119.358,70.571,119.358z"/>
	</g>
	<g id="XMLID_98_">
		<path fill="#FFFFFF" d="M125.045,411.543c-40.96,0-74.284-33.323-74.284-74.284c0-40.96,33.324-74.284,74.284-74.284
			c40.961,0,74.284,33.324,74.284,74.284C199.329,378.219,166.006,411.543,125.045,411.543z M125.045,302.593
			c-19.11,0-34.666,15.556-34.666,34.666c0,19.111,15.556,34.666,34.666,34.666c19.111,0,34.666-15.555,34.666-34.666
			C159.711,318.148,144.156,302.593,125.045,302.593z"/>
	</g>
	<g id="XMLID_100_">
		<path fill="#FFFFFF" d="M323.137,394.211c-36.865,0-66.855-29.992-66.855-66.856c0-36.865,29.99-66.856,66.855-66.856
			s66.856,29.991,66.856,66.856C389.993,364.219,360.002,394.211,323.137,394.211z M323.137,285.26
			c-23.211,0-42.095,18.883-42.095,42.095c0,23.211,18.884,42.095,42.095,42.095c23.212,0,42.095-18.884,42.095-42.095
			C365.232,304.142,346.349,285.26,323.137,285.26z"/>
	</g>
	<g id="XMLID_93_">
		<path fill="#FFFFFF" d="M585.609,307.545c-32.77,0-59.428-26.658-59.428-59.428c0-32.769,26.658-59.427,59.428-59.427
			s59.427,26.658,59.427,59.427C645.035,280.886,618.378,307.545,585.609,307.545z M585.609,198.594
			c-27.307,0-49.523,22.216-49.523,49.522c0,27.308,22.217,49.523,49.523,49.523s49.522-22.216,49.522-49.523
			C635.131,220.81,612.915,198.594,585.609,198.594z"/>
	</g>
	<g id="XMLID_101_">
		<path fill="#FFFFFF" d="M501.419,485.828c-40.96,0-74.284-33.324-74.284-74.285c0-40.96,33.324-74.284,74.284-74.284
			c40.961,0,74.285,33.324,74.285,74.284C575.704,452.504,542.38,485.828,501.419,485.828z M501.419,376.877
			c-19.11,0-34.666,15.556-34.666,34.666c0,19.111,15.556,34.666,34.666,34.666c19.111,0,34.666-15.555,34.666-34.666
			C536.085,392.432,520.531,376.877,501.419,376.877z"/>
	</g>
	<g id="XMLID_95_">
		<path fill="#FFFFFF" d="M763.891,334.783c-36.865,0-66.856-29.991-66.856-66.856c0-36.864,29.991-66.855,66.856-66.855
			s66.855,29.991,66.855,66.855C830.746,304.792,800.756,334.783,763.891,334.783z M763.891,225.832
			c-23.211,0-42.095,18.884-42.095,42.095c0,23.212,18.884,42.095,42.095,42.095s42.095-18.883,42.095-42.095
			C805.986,244.716,787.102,225.832,763.891,225.832z"/>
	</g>
</g>
<g>
	<path fill="#FFFFFF" d="M234.145,229.253c-21.694,0-39.343-17.649-39.343-39.343s17.649-39.343,39.343-39.343
		s39.343,17.649,39.343,39.343S255.839,229.253,234.145,229.253z M234.145,162.567c-15.077,0-27.343,12.266-27.343,27.343
		c0,15.077,12.266,27.343,27.343,27.343c15.077,0,27.343-12.266,27.343-27.343C261.488,174.833,249.221,162.567,234.145,162.567z"/>
</g>
<g>
	<path fill="#FFFFFF" d="M480.649,138.892c-21.694,0-39.344-17.649-39.344-39.343s17.649-39.343,39.344-39.343
		c21.693,0,39.342,17.649,39.342,39.343S502.342,138.892,480.649,138.892z M480.649,72.206c-15.077,0-27.344,12.266-27.344,27.343
		c0,15.077,12.267,27.343,27.344,27.343c15.076,0,27.342-12.266,27.342-27.343C507.99,84.472,495.725,72.206,480.649,72.206z"/>
</g>
<g>
	<path fill="#FFFFFF" d="M668.56,460.792c-21.694,0-39.344-17.649-39.344-39.343c0-21.694,17.649-39.344,39.344-39.344
		c21.693,0,39.342,17.649,39.342,39.344C707.902,443.142,690.253,460.792,668.56,460.792z M668.56,394.105
		c-15.077,0-27.344,12.267-27.344,27.344s12.267,27.343,27.344,27.343c15.076,0,27.342-12.266,27.342-27.343
		S683.636,394.105,668.56,394.105z"/>
</g>
<g>
	<path fill="#FFFFFF" d="M235.319,516.689c-21.694,0-39.344-17.649-39.344-39.343c0-21.694,17.649-39.344,39.344-39.344
		c21.693,0,39.342,17.649,39.342,39.344C274.66,499.04,257.012,516.689,235.319,516.689z M235.319,450.003
		c-15.077,0-27.344,12.267-27.344,27.344s12.267,27.343,27.344,27.343c15.076,0,27.342-12.266,27.342-27.343
		S250.395,450.003,235.319,450.003z"/>
</g>
</svg>
