<?xml version="1.0" encoding="utf-8"?>
<!-- Generator: Adobe Illustrator 16.0.0, SVG Export Plug-In . SVG Version: 6.00 Build 0)  -->
<!DOCTYPE svg PUBLIC "-//W3C//DTD SVG 1.1//EN" "http://www.w3.org/Graphics/SVG/1.1/DTD/svg11.dtd">
<svg version="1.1" id="Capa_1" xmlns="http://www.w3.org/2000/svg" xmlns:xlink="http://www.w3.org/1999/xlink" x="0px" y="0px"
	 width="841.889px" height="595.281px" viewBox="0 0 841.889 595.281" enable-background="new 0 0 841.889 595.281"
	 xml:space="preserve">
<g>
	<g id="XMLID_85_">
		<path fill="#FFFFFF" d="M467.991,495.732c-10.939,0-19.81-8.869-19.81-19.81v-59.427c0-10.94,8.87-19.81,19.81-19.81
			s19.809,8.869,19.809,19.81v59.427C487.8,486.863,478.931,495.732,467.991,495.732z"/>
	</g>
	<g id="XMLID_48_">
		<g id="XMLID_80_">
			<path fill="#FFFFFF" d="M76.76,495.732c-10.939,0-19.809-8.869-19.809-19.81V119.358c0-10.94,8.869-19.81,19.809-19.81
				s19.81,8.869,19.81,19.81v356.564C96.57,486.863,87.699,495.732,76.76,495.732z"/>
		</g>
		<g id="XMLID_82_">
			<path fill="#FFFFFF" d="M175.806,495.732c-10.939,0-19.809-8.869-19.809-19.81v-193.14c0-10.939,8.869-19.809,19.809-19.809
				s19.81,8.869,19.81,19.809v193.14C195.615,486.863,186.745,495.732,175.806,495.732z"/>
		</g>
		<g id="XMLID_108_">
			<path fill="#FFFFFF" d="M765.128,495.732c-10.939,0-19.809-8.869-19.809-19.81v-193.14c0-10.939,8.869-19.809,19.809-19.809
				c10.94,0,19.81,8.869,19.81,19.809v193.14C784.938,486.863,776.069,495.732,765.128,495.732z"/>
		</g>
		<g id="XMLID_83_">
			<path fill="#FFFFFF" d="M274.852,495.732c-10.939,0-19.809-8.869-19.809-19.81V203.547c0-10.939,8.869-19.809,19.809-19.809
				s19.81,8.869,19.81,19.809v272.376C294.661,486.863,285.791,495.732,274.852,495.732z"/>
		</g>
		<g id="XMLID_84_">
			<path fill="#FFFFFF" d="M373.898,495.732c-10.939,0-19.81-8.869-19.81-19.81V352.116c0-10.94,8.87-19.81,19.81-19.81
				s19.81,8.869,19.81,19.81v123.807C393.707,486.863,384.837,495.732,373.898,495.732z"/>
		</g>
		<g id="XMLID_86_">
			<path fill="#FFFFFF" d="M567.037,495.732c-10.939,0-19.81-8.869-19.81-19.81V223.356c0-10.94,8.87-19.81,19.81-19.81
				s19.809,8.869,19.809,19.81v252.566C586.846,486.863,577.977,495.732,567.037,495.732z"/>
		</g>
		<g id="XMLID_87_">
			<path fill="#FFFFFF" d="M666.083,495.732c-10.939,0-19.81-8.869-19.81-19.81V352.116c0-10.94,8.87-19.81,19.81-19.81
				s19.809,8.869,19.809,19.81v123.807C685.892,486.863,677.023,495.732,666.083,495.732z"/>
		</g>
	</g>
</g>
</svg>
