<?xml version="1.0" encoding="utf-8"?>
<!-- Generator: Adobe Illustrator 19.0.0, SVG Export Plug-In . SVG Version: 6.00 Build 0)  -->
<svg version="1.1" id="Capa_1" xmlns="http://www.w3.org/2000/svg" xmlns:xlink="http://www.w3.org/1999/xlink" x="0px" y="0px"
	 viewBox="-285 408.9 24 24" style="enable-background:new -285 408.9 24 24;" xml:space="preserve">
<style type="text/css">
	.st0{fill:#8D81AC;}
</style>
<path class="st0" d="M-272,420.9l-0.7-4h-0.6l-0.7,4c-0.6,0.4-1,1-1,1.7c0,1.1,0.9,2,2,2s2-0.9,2-2
	C-271,421.9-271.4,421.2-272,420.9z M-273,412.9c-5.5,0-10,4.5-10,10c0,5.5,4.5,10,10,10s10-4.5,10-10
	C-263,417.4-267.5,412.9-273,412.9z M-273,430.9c-4.4,0-8-3.6-8-8c0-4.4,3.6-8,8-8s8,3.6,8,8C-265,427.3-268.6,430.9-273,430.9z
	 M-275,411.1v-2.2h4v2.2C-272.4,410.8-273.6,410.8-275,411.1z M-265.8,413.3l1.4-1.4l1.4,1.4l-1.3,1.3
	C-264.8,414.1-265.3,413.7-265.8,413.3z"/>
</svg>
