<?xml version="1.0" encoding="utf-8"?>
<!-- Generator: Adobe Illustrator 19.0.0, SVG Export Plug-In . SVG Version: 6.00 Build 0)  -->
<svg version="1.1" id="Capa_1" xmlns="http://www.w3.org/2000/svg" xmlns:xlink="http://www.w3.org/1999/xlink" x="0px" y="0px"
	 viewBox="-285 408.9 24 24" style="enable-background:new -285 408.9 24 24;" xml:space="preserve">
<style type="text/css">
	.st0{fill:#8D81AC;}
</style>
<path class="st0" d="M-279,422.9h6v-6c3.3,0,6,2.7,6,6c0,3.3-2.7,6-6,6S-279,426.2-279,422.9z M-263,422.9c0,5.5-4.5,10-10,10
	s-10-4.5-10-10c0-5.5,4.5-10,10-10S-263,417.4-263,422.9z M-265,422.9c0-4.4-3.6-8-8-8s-8,3.6-8,8c0,4.4,3.6,8,8,8
	S-265,427.3-265,422.9z M-271,411.1v-2.2h-4v2.2C-273.6,410.8-272.4,410.8-271,411.1z M-264.3,414.6l1.3-1.3l-1.4-1.4l-1.4,1.4
	C-265.3,413.7-264.8,414.1-264.3,414.6z"/>
</svg>
