<?xml version="1.0" encoding="utf-8"?>
<!-- Generator: Adobe Illustrator 19.0.0, SVG Export Plug-In . SVG Version: 6.00 Build 0)  -->
<svg version="1.1" id="Capa_1" xmlns="http://www.w3.org/2000/svg" xmlns:xlink="http://www.w3.org/1999/xlink" x="0px" y="0px"
	 viewBox="-185 186.9 28.1 28.1" style="enable-background:new -185 186.9 28.1 28.1;" xml:space="preserve">
<style type="text/css">
	.st0{fill:#FFFFFF;}
	.st1{fill:#C63535;}
</style>
<g>
	<g id="Capa_3_1_">
		<path class="st0" d="M-165.4,207.9h-11v3.1c0,0.9,0.4,1.8,1.1,2.5c0.9,0.9,2.4,1.5,4.4,1.5c2.1,0,3.6-0.6,4.5-1.5
			c0.7-0.7,1.1-1.6,1.1-2.5C-165.3,209.2-165.4,207.9-165.4,207.9z M-173.6,211.6c-0.5,0-0.9-0.4-0.9-0.9s0.4-0.9,0.9-0.9
			s0.9,0.4,0.9,0.9S-173.1,211.6-173.6,211.6z M-170.9,211.6c-0.5,0-0.9-0.4-0.9-0.9s0.4-0.9,0.9-0.9s0.9,0.4,0.9,0.9
			S-170.4,211.6-170.9,211.6z M-168.3,211.6c-0.5,0-0.9-0.4-0.9-0.9s0.4-0.9,0.9-0.9s0.9,0.4,0.9,0.9
			C-167.4,211.2-167.8,211.6-168.3,211.6z"/>
	</g>
	<g id="Capa_2_1_">
		<path class="st0" d="M-166.6,188.4c-0.9-0.9-2.4-1.5-4.4-1.5c-2.1,0-3.6,0.6-4.5,1.5c-0.7,0.7-1.1,1.6-1.1,2.5
			c0,1,0.1,3.1,0.1,3.1h11v-3.1C-165.4,190-165.8,189.1-166.6,188.4z M-173.7,192.1c-0.5,0-0.9-0.4-0.9-0.9c0.1-0.5,0.5-0.9,0.9-0.9
			c0.5,0,0.9,0.4,0.9,0.9S-173.2,192.1-173.7,192.1z M-170.9,192.1c-0.5,0-0.9-0.4-0.9-0.9s0.4-0.9,0.9-0.9s0.9,0.4,0.9,0.9
			S-170.4,192.1-170.9,192.1z M-168.3,192.1c-0.5,0-0.9-0.4-0.9-0.9s0.4-0.9,0.9-0.9s0.9,0.4,0.9,0.9S-167.8,192.1-168.3,192.1z"/>
	</g>
	<g id="Capa_1_2_">
		<path class="st1" d="M-180.3,195.5c-0.3,0-0.9,0.1-1.2,0.1c0,0-1.2,0.3-1.9,1c-0.9,0.9-1.5,2.4-1.5,4.5c0,2,0.6,3.5,1.5,4.4
			c0.7,0.7,1.9,1,1.9,1c0.3,0.1,0.9,0.1,1.2,0.1h18.8c0.3,0,0.9-0.1,1.2-0.1c0,0,1.2-0.3,1.9-1c0.9-0.9,1.5-2.4,1.5-4.5
			c0-2-0.6-3.5-1.5-4.4c-0.7-0.7-1.6-1.1-2.5-1.1C-160.8,195.5-180.3,195.5-180.3,195.5z M-161.2,197.5c0.5,0,0.9,0.4,0.9,0.9
			s-0.4,0.9-0.9,0.9s-0.9-0.4-0.9-0.9S-161.7,197.5-161.2,197.5z M-164.2,197.5c0.5,0,0.9,0.4,0.9,0.9s-0.4,0.9-0.9,0.9
			s-0.9-0.4-0.9-0.9S-164.7,197.5-164.2,197.5z M-177.8,197.5c0.5,0,0.9,0.4,0.9,0.9s-0.4,0.9-0.9,0.9s-0.9-0.4-0.9-0.9
			S-178.3,197.5-177.8,197.5z M-180.8,199.1c-0.5,0-0.9-0.4-0.9-0.9s0.4-0.9,0.9-0.9s0.9,0.4,0.9,0.9S-180.3,199.1-180.8,199.1z
			 M-180.8,201.8c-0.5,0-0.9-0.4-0.9-0.9s0.4-0.9,0.9-0.9s0.9,0.4,0.9,0.9C-179.8,201.4-180.3,201.8-180.8,201.8z M-180.8,204.4
			c-0.5,0-0.9-0.4-0.9-0.9s0.4-0.9,0.9-0.9s0.9,0.4,0.9,0.9S-180.3,204.4-180.8,204.4z M-177.8,201.8c-0.5,0-0.9-0.4-0.9-0.9
			s0.4-0.9,0.9-0.9s0.9,0.4,0.9,0.9C-176.8,201.4-177.3,201.8-177.8,201.8z M-177.8,204.4c-0.5,0-0.9-0.4-0.9-0.9s0.4-0.9,0.9-0.9
			s0.9,0.4,0.9,0.9S-177.3,204.4-177.8,204.4z M-173.8,204.4c-0.3,0-0.6-0.3-0.6-0.6v-5.7c0-0.3,0.3-0.6,0.6-0.6h5.7
			c0.3,0,0.6,0.3,0.6,0.6v5.7c0,0.3-0.3,0.6-0.6,0.6L-173.8,204.4L-173.8,204.4z M-164.2,201.8c-0.5,0-0.9-0.4-0.9-0.9
			s0.4-0.9,0.9-0.9s0.9,0.4,0.9,0.9C-163.3,201.4-163.7,201.8-164.2,201.8z M-164.2,204.4c-0.5,0-0.9-0.4-0.9-0.9s0.4-0.9,0.9-0.9
			s0.9,0.4,0.9,0.9S-163.7,204.4-164.2,204.4z M-161.2,201.8c-0.5,0-0.9-0.4-0.9-0.9s0.4-0.9,0.9-0.9s0.9,0.4,0.9,0.9
			C-160.3,201.4-160.7,201.8-161.2,201.8z M-161.2,204.4c-0.5,0-0.9-0.4-0.9-0.9s0.4-0.9,0.9-0.9s0.9,0.4,0.9,0.9
			S-160.7,204.4-161.2,204.4z"/>
	</g>
</g>
</svg>
