<?xml version="1.0" encoding="utf-8"?>
<!-- Generator: Adobe Illustrator 19.0.0, SVG Export Plug-In . SVG Version: 6.00 Build 0)  -->
<svg version="1.1" id="Capa_1" xmlns="http://www.w3.org/2000/svg" xmlns:xlink="http://www.w3.org/1999/xlink" x="0px" y="0px"
	 viewBox="-285 408.9 24 24" style="enable-background:new -285 408.9 24 24;" xml:space="preserve">
<style type="text/css">
	.st0{fill:#8D81AC;}
</style>
<path class="st0" d="M-273,417.9c5.3,0,10-2,10-4.5c0-2.5-4.7-4.5-10-4.5c-5.3,0-10,2-10,4.5C-283,415.9-278.3,417.9-273,417.9z
	 M-272.8,413.9c-0.6-0.2-2.4-0.3-2.4-1.4c0-0.6,0.7-1.1,1.9-1.2v-0.4h0.6v0.4c0.5,0,1,0.1,1.6,0.2l-0.2,0.7
	c-0.4-0.1-0.9-0.2-1.4-0.2c0,0-0.1,0-0.1,0c-1,0-1,0.6-0.4,0.8c1.1,0.3,2.5,0.6,2.5,1.5c0,0.7-0.9,1.1-1.9,1.2v0.4h-0.6v-0.4
	c-0.7,0-1.3-0.1-1.9-0.3l0.3-0.7c0.5,0.1,1.1,0.3,1.6,0.3c0.1,0,0.3,0,0.4,0C-272.2,414.6-272,414.1-272.8,413.9L-272.8,413.9z
	 M-273,429.9c3.8,0,7.7-1,10-2.8v1.3c0,2.5-4.7,4.5-10,4.5c-5.3,0-10-2-10-4.5v-1.3C-280.7,428.9-276.8,429.9-273,429.9z
	 M-273,419.9c3.8,0,7.7-1,10-2.8v1.3c0,2.5-4.7,4.5-10,4.5c-5.3,0-10-2-10-4.5v-1.3C-280.7,418.9-276.8,419.9-273,419.9z
	 M-273,424.9c3.8,0,7.7-1,10-2.8v1.3c0,2.5-4.7,4.5-10,4.5c-5.3,0-10-2-10-4.5v-1.3C-280.7,423.9-276.8,424.9-273,424.9z"/>
</svg>
