<?xml version="1.0" encoding="utf-8"?>
<!-- Generator: Adobe Illustrator 19.0.0, SVG Export Plug-In . SVG Version: 6.00 Build 0)  -->
<svg version="1.1" id="Capa_1" xmlns="http://www.w3.org/2000/svg" xmlns:xlink="http://www.w3.org/1999/xlink" x="0px" y="0px"
	 viewBox="-285 408.9 24 24" style="enable-background:new -285 408.9 24 24;" xml:space="preserve">
<style type="text/css">
	.st0{fill:#8D81AC;}
</style>
<path class="st0" d="M-273,410.9c5.5,0,10,4.5,10,10c0,5.5-4.5,10-10,10s-10-4.5-10-10C-283,415.4-278.5,410.9-273,410.9z
	 M-273,408.9c-6.6,0-12,5.4-12,12c0,6.6,5.4,12,12,12s12-5.4,12-12C-261,414.3-266.4,408.9-273,408.9z M-269,423
	c0-2.1-2.2-2.7-3.9-3.5c-1-0.5-0.9-1.8,0.6-1.9c0.8,0,1.7,0.2,2.4,0.5l0.4-1.6c-0.8-0.3-1.6-0.4-2.5-0.4v-1h-1v1.1
	c-1.9,0.3-3,1.5-3,2.9c0,2.4,2.8,2.8,3.8,3.2c1.3,0.6,1,1.8-0.1,2c-1,0.2-2.3-0.2-3.2-0.5l-0.5,1.6c0.9,0.5,2,0.7,3,0.7v1h1v-1.1
	C-270.3,425.6-269,424.7-269,423z"/>
</svg>
