<?xml version="1.0" encoding="iso-8859-1"?>
<!-- Generator: Adobe Illustrator 19.0.0, SVG Export Plug-In . SVG Version: 6.00 Build 0)  -->
<svg version="1.1" id="Capa_1" xmlns="http://www.w3.org/2000/svg" xmlns:xlink="http://www.w3.org/1999/xlink" x="0px" y="0px"
	 viewBox="-293 385 24 24" style="enable-background:new -293 385 24 24;" xml:space="preserve">
<path style="fill:#E8AEAE;" d="M-293,392.2c3.1-3.2,7.3-5.2,12-5.2s8.9,2,12,5.2l-2,2.1c-2.5-2.7-6.1-4.4-10-4.4s-7.4,1.7-10,4.4
	C-291,394.4-293,392.2-293,392.2z"/>
<path style="fill:#C63535;" d="M-281,403.2c-1.1,0-1.9,0.9-1.9,1.9c0,1.1,0.9,1.9,1.9,1.9s1.9-0.9,1.9-1.9
	C-279.1,404-279.9,403.2-281,403.2z"/>
<path style="fill:#D15D5D;" d="M-283.6,402.1c0.7-0.7,1.6-1.1,2.6-1.1s2,0.4,2.6,1.1l2.1-2.2c-1.2-1.3-2.9-2-4.7-2s-3.5,0.8-4.7,2
	C-285.7,400-283.6,402.1-283.6,402.1z"/>
<path style="fill:#DD8686;" d="M-287.3,398.3c1.6-1.7,3.8-2.7,6.3-2.7s4.7,1,6.3,2.7l2.1-2.2c-2.1-2.3-5.1-3.7-8.4-3.7
	s-6.2,1.4-8.4,3.7L-287.3,398.3z"/>
</svg>
