<?xml version="1.0" encoding="utf-8"?>
<!-- Generator: Adobe Illustrator 19.0.0, SVG Export Plug-In . SVG Version: 6.00 Build 0)  -->
<svg version="1.1" id="Capa_1" xmlns="http://www.w3.org/2000/svg" xmlns:xlink="http://www.w3.org/1999/xlink" x="0px" y="0px"
	 viewBox="-309.1 226.9 28.1 28.1" style="enable-background:new -309.1 226.9 28.1 28.1;" xml:space="preserve">
<style type="text/css">
	.st0{fill:#FFFFFF;}
</style>
<path class="st0" d="M-305.1,235.5c-0.9,0-1.8,0.4-2.5,1.1c-0.9,0.9-1.5,2.4-1.5,4.5c0,2,0.6,3.5,1.5,4.4c0.7,0.7,1.6,1.1,2.5,1.1
	l20.1,0c0.9,0,1.8-0.4,2.5-1.1c0.9-0.9,1.5-2.4,1.5-4.5c0-2-0.6-3.5-1.5-4.4c-0.7-0.7-1.6-1.1-2.5-1.1
	C-284.9,235.5-305.1,235.5-305.1,235.5z M-285.2,237.5c0.5,0,0.9,0.4,0.9,0.9c0,0.5-0.4,0.9-0.9,0.9c-0.5,0-0.9-0.4-0.9-0.9
	C-286.1,237.9-285.7,237.5-285.2,237.5z M-288.2,237.5c0.5,0,0.9,0.4,0.9,0.9c0,0.5-0.4,0.9-0.9,0.9c-0.5,0-0.9-0.4-0.9-0.9
	C-289.1,237.9-288.7,237.5-288.2,237.5z M-301.8,237.5c0.5,0,0.9,0.4,0.9,0.9c0,0.5-0.4,0.9-0.9,0.9c-0.5,0-0.9-0.4-0.9-0.9
	C-302.7,237.9-302.3,237.5-301.8,237.5z M-304.8,239.2c-0.5,0-0.9-0.4-0.9-0.9c0-0.5,0.4-0.9,0.9-0.9c0.5,0,0.9,0.4,0.9,0.9
	C-303.9,238.8-304.3,239.2-304.8,239.2z M-304.8,241.9c-0.5,0-0.9-0.4-0.9-0.9c0-0.5,0.4-0.9,0.9-0.9c0.5,0,0.9,0.4,0.9,0.9
	C-303.9,241.5-304.3,241.9-304.8,241.9z M-304.8,244.5c-0.5,0-0.9-0.4-0.9-0.9s0.4-0.9,0.9-0.9c0.5,0,0.9,0.4,0.9,0.9
	C-303.9,244.1-304.3,244.5-304.8,244.5z M-301.8,241.9c-0.5,0-0.9-0.4-0.9-0.9c0-0.5,0.4-0.9,0.9-0.9c0.5,0,0.9,0.4,0.9,0.9
	C-300.9,241.5-301.3,241.9-301.8,241.9z M-301.8,244.5c-0.5,0-0.9-0.4-0.9-0.9c0-0.5,0.4-0.9,0.9-0.9c0.5,0,0.9,0.4,0.9,0.9
	C-300.9,244.1-301.3,244.5-301.8,244.5z M-298.5,244.5v-7h7v7H-298.5z M-288.2,241.9c-0.5,0-0.9-0.4-0.9-0.9c0-0.5,0.4-0.9,0.9-0.9
	c0.5,0,0.9,0.4,0.9,0.9C-287.3,241.5-287.7,241.9-288.2,241.9z M-288.2,244.5c-0.5,0-0.9-0.4-0.9-0.9c0-0.5,0.4-0.9,0.9-0.9
	c0.5,0,0.9,0.4,0.9,0.9C-287.3,244.1-287.7,244.5-288.2,244.5z M-285.2,241.9c-0.5,0-0.9-0.4-0.9-0.9c0-0.5,0.4-0.9,0.9-0.9
	c0.5,0,0.9,0.4,0.9,0.9C-284.3,241.5-284.7,241.9-285.2,241.9z M-285.2,244.5c-0.5,0-0.9-0.4-0.9-0.9c0-0.5,0.4-0.9,0.9-0.9
	c0.5,0,0.9,0.4,0.9,0.9C-284.3,244.1-284.7,244.5-285.2,244.5z M-300.5,234l11,0v-3.1c0-0.9-0.4-1.8-1.1-2.5
	c-0.9-0.9-2.4-1.5-4.4-1.5c-2.1,0-3.6,0.6-4.5,1.5c-0.7,0.7-1.1,1.6-1.1,2.5C-300.5,230.9-300.5,234-300.5,234z M-292.4,230.3
	c0.5,0,0.9,0.4,0.9,0.9c0,0.5-0.4,0.9-0.9,0.9c-0.5,0-0.9-0.4-0.9-0.9C-293.3,230.7-292.9,230.3-292.4,230.3z M-295,230.3
	c0.5,0,0.9,0.4,0.9,0.9c0,0.5-0.4,0.9-0.9,0.9c-0.5,0-0.9-0.4-0.9-0.9C-295.9,230.7-295.5,230.3-295,230.3z M-297.7,230.3
	c0.5,0,0.9,0.4,0.9,0.9c0,0.5-0.4,0.9-0.9,0.9c-0.5,0-0.9-0.4-0.9-0.9C-298.5,230.7-298.1,230.3-297.7,230.3z M-289.5,248l-11,0
	l0,3.1c0,0.9,0.4,1.8,1.1,2.5c0.9,0.9,2.4,1.5,4.4,1.5c2.1,0,3.6-0.6,4.5-1.5c0.7-0.7,1.1-1.6,1.1-2.5
	C-289.5,251.1-289.5,248-289.5,248z M-297.6,251.7c-0.5,0-0.9-0.4-0.9-0.9c0-0.5,0.4-0.9,0.9-0.9c0.5,0,0.9,0.4,0.9,0.9
	C-296.7,251.3-297.1,251.7-297.6,251.7z M-295,251.7c-0.5,0-0.9-0.4-0.9-0.9c0-0.5,0.4-0.9,0.9-0.9c0.5,0,0.9,0.4,0.9,0.9
	C-294.1,251.3-294.5,251.7-295,251.7z M-292.3,251.7c-0.5,0-0.9-0.4-0.9-0.9c0-0.5,0.4-0.9,0.9-0.9c0.5,0,0.9,0.4,0.9,0.9
	C-291.5,251.3-291.9,251.7-292.3,251.7z"/>
</svg>
