<?xml version="1.0" encoding="utf-8"?>
<!-- Generator: Adobe Illustrator 19.0.0, SVG Export Plug-In . SVG Version: 6.00 Build 0)  -->
<svg version="1.1" id="Capa_1" xmlns="http://www.w3.org/2000/svg" xmlns:xlink="http://www.w3.org/1999/xlink" x="0px" y="0px"
	 viewBox="-285 408.9 24 24" style="enable-background:new -285 408.9 24 24;" xml:space="preserve">
<style type="text/css">
	.st0{fill:#8D81AC;}
</style>
<path class="st0" d="M-283.4,420.3l-1.5-1l5.4-0.6l1.9,5l-1.5-1c-1.5,2.4-2.8,5.2-2,7.9c-2.5-2.1-3.9-3.8-3.9-5.7
	C-285,423.5-284.1,421.6-283.4,420.3z M-279.3,425.9c-0.8,0.9-1,2.9-0.8,4.1c0.1,0.5,0.6,0.9,1.1,0.9h4.9v-5H-279.3z M-268.6,431.1
	v1.8l-3.4-4.3l3.4-4.3v1.8c2.8,0,5.8-0.3,7.6-2.5c-0.5,3.2-1.1,5.3-2.8,6.3C-265,430.7-267.2,431-268.6,431.1L-268.6,431.1z
	 M-266,424.7c1.2,0.2,3-0.7,3.9-1.5c0.4-0.4,0.5-1,0.2-1.5l-2.6-4.2l-4.2,2.6L-266,424.7z M-266.9,413.1l1.6-0.9l-2.1,5l-5.3-0.8
	l1.6-0.9c-1.4-2.5-3.2-5-5.9-5.6c1.9-0.7,3.4-1.1,4.7-1.1C-270.1,408.9-268.8,410.2-266.9,413.1L-266.9,413.1z M-273.8,413.9
	c-0.4-1.1-2-2.3-3.2-2.6c-0.5-0.2-1.1,0.1-1.4,0.5l-2.4,4.3l4.4,2.4L-273.8,413.9L-273.8,413.9z"/>
</svg>
