<?xml version="1.0" encoding="utf-8"?>
<!-- Generator: Adobe Illustrator 19.0.0, SVG Export Plug-In . SVG Version: 6.00 Build 0)  -->
<svg version="1.1" id="Capa_1" xmlns="http://www.w3.org/2000/svg" xmlns:xlink="http://www.w3.org/1999/xlink" x="0px" y="0px"
	 viewBox="-285 408.9 24 24" style="enable-background:new -285 408.9 24 24;" xml:space="preserve">
<style type="text/css">
	.st0{fill:#8D81AC;}
</style>
<path class="st0" d="M-261.7,428.2l-4.1,1.2l-1.2-4.1l1.8,1c0.8-1.3,1.2-2.9,1.2-4.4c0-3.7-2.2-6.9-5.4-8.2l0.6-1.9
	c4,1.7,6.8,5.6,6.8,10.2c0,2-0.5,3.8-1.4,5.4L-261.7,428.2L-261.7,428.2z M-273,430.9c-3.3,0-6.2-1.8-7.8-4.5l1.8-1l-4.1-1.1
	l-1.1,4.1l1.7-1c1.9,3.3,5.4,5.5,9.5,5.5c2.2,0,4.2-0.7,6-1.8l-1.2-1.6C-269.7,430.4-271.3,430.9-273,430.9L-273,430.9z M-282,422
	c0,0,0-0.1,0-0.1c0-4.6,3.5-8.4,8-8.9l0,1.9l3-3l-3-3l0,2c-5.6,0.5-10,5.2-10,11c0,0.1,0,0.3,0,0.4C-284,422.3-282,422-282,422z
	 M-275.9,421.5c-0.2,0.9-0.1,1.8,0.4,2.6c0.9-1.3,2.6-2.8,3.8-3c-2.4,1.7-3.7,4.2-3.9,6.9h1c0-1,0.1-2.3,0.5-2.9
	c0.9,0.3,1.9,0.1,2.8-0.6c1.7-1.5,1.1-5.1,4.1-5.6C-271.3,416.6-275.1,418.9-275.9,421.5L-275.9,421.5z"/>
</svg>
