<?xml version="1.0" encoding="utf-8"?>
<!-- Generator: Adobe Illustrator 19.0.0, SVG Export Plug-In . SVG Version: 6.00 Build 0)  -->
<svg version="1.1" id="Capa_1" xmlns="http://www.w3.org/2000/svg" xmlns:xlink="http://www.w3.org/1999/xlink" x="0px" y="0px"
	 viewBox="-285 408.9 24 24" style="enable-background:new -285 408.9 24 24;" xml:space="preserve">
<style type="text/css">
	.st0{fill:#8D81AC;}
</style>
<path class="st0" d="M-264.2,429.4c-2.3-3.7-5.6-7-5.7-11.5h-2c0.2,5.2,3.5,8.5,6,12.4c0.1,0.3-0.1,0.6-0.4,0.6h-1.3l-4.7-7h-3.5
	c0.9-1.7,1.9-3.4,1.9-6h-2c-0.2,4.5-3.4,7.9-5.7,11.5c-0.2,0.3-0.2,0.7-0.2,1.1c0,1.3,1,2.4,2.4,2.4h13.2c1.4,0,2.4-1.2,2.4-2.4
	C-264,430.1-264.1,429.7-264.2,429.4z M-269,413.9c0,1.1-0.9,2-2,2s-2-0.9-2-2c0-1.1,0.9-2,2-2S-269,412.8-269,413.9z M-274,412.4
	c0,0.8-0.7,1.5-1.5,1.5s-1.5-0.7-1.5-1.5c0-0.8,0.7-1.5,1.5-1.5S-274,411.6-274,412.4z M-274,415.9c0,0.6-0.4,1-1,1s-1-0.4-1-1
	c0-0.6,0.4-1,1-1S-274,415.3-274,415.9z M-271,409.9c0,0.6-0.4,1-1,1s-1-0.4-1-1c0-0.6,0.4-1,1-1S-271,409.3-271,409.9z"/>
</svg>
