<?xml version="1.0" encoding="utf-8"?>
<!-- Generator: Adobe Illustrator 16.0.0, SVG Export Plug-In . SVG Version: 6.00 Build 0)  -->
<!DOCTYPE svg PUBLIC "-//W3C//DTD SVG 1.1//EN" "http://www.w3.org/Graphics/SVG/1.1/DTD/svg11.dtd">
<svg version="1.1" id="img" xmlns="http://www.w3.org/2000/svg" xmlns:xlink="http://www.w3.org/1999/xlink" x="0px" y="0px"
	 width="150px" height="69.5px" viewBox="345.945 248.14 150 69.5" enable-background="new 345.945 248.14 150 69.5"
	 xml:space="preserve">
<g>
	<g>
		<g>
			<g id="Capa_3">
				<path fill="#0A2249" d="M380.888,295.3h-19.557v5.56c0,1.588,0.695,3.176,1.985,4.467c1.588,1.588,4.269,2.681,7.842,2.681
					c3.772,0,6.453-1.093,8.041-2.681c1.291-1.291,1.985-2.879,1.985-4.467C381.087,297.583,380.888,295.3,380.888,295.3z
					 M366.494,301.951c-0.894,0-1.589-0.695-1.589-1.588c0-0.895,0.695-1.59,1.589-1.59c0.893,0,1.588,0.695,1.588,1.59
					C368.082,301.256,367.387,301.951,366.494,301.951z M371.06,301.951c-0.893,0-1.588-0.695-1.588-1.588
					c0-0.895,0.695-1.59,1.588-1.59c0.894,0,1.588,0.695,1.588,1.59C372.748,301.256,371.954,301.951,371.06,301.951z
					 M375.925,301.951c-0.894,0-1.589-0.695-1.589-1.588c0-0.895,0.695-1.59,1.589-1.59s1.588,0.695,1.588,1.59
					C377.315,301.256,376.62,301.951,375.925,301.951z"/>
			</g>
			<g id="Capa_2">
				<path fill="#0A2249" d="M378.903,260.455c-1.588-1.588-4.269-2.68-7.842-2.68c-3.773,0-6.453,1.092-8.041,2.68
					c-1.291,1.291-1.986,2.88-1.986,4.468c0,1.787,0.199,5.56,0.199,5.56h19.557v-5.56
					C380.888,263.335,380.194,261.746,378.903,260.455z M366.295,267.008c-0.894,0-1.588-0.695-1.588-1.589
					c0.199-0.894,0.894-1.588,1.588-1.588c0.894,0,1.589,0.694,1.589,1.588S367.189,267.008,366.295,267.008z M371.06,267.008
					c-0.893,0-1.588-0.695-1.588-1.589s0.695-1.588,1.588-1.588c0.894,0,1.588,0.694,1.588,1.588
					C372.748,266.312,371.954,267.008,371.06,267.008z M375.726,267.008c-0.893,0-1.588-0.695-1.588-1.589s0.694-1.588,1.588-1.588
					c0.894,0,1.589,0.694,1.589,1.588S376.62,267.008,375.726,267.008z"/>
			</g>
			<g id="Capa_1_1_">
				<g>
					<path fill="#C63535" d="M356.071,273.063c-1.688,0-4.655,0-5.857,0.694c0,0-0.601,0.253-1.588,1.291
						c-1.589,1.588-2.681,4.269-2.681,8.041c0,3.573,1.147,6.199,2.681,7.842c1.054,1.129,1.588,1.291,1.588,1.291
						c1.135,0.694,4.095,0.694,5.857,0.694h29.781c1.754,0,4.841-0.193,5.857-0.694c0.628-0.311,0.849-0.551,1.588-1.291
						c1.458-1.497,2.68-4.269,2.68-8.041c0-3.573-1.092-6.254-2.68-7.842c-1.291-1.291-2.878-1.985-4.467-1.985
						C389.029,273.063,356.071,273.063,356.071,273.063z M388.532,276.636c0.894,0,1.588,0.694,1.588,1.589
						c0,0.894-0.695,1.588-1.588,1.588s-1.589-0.694-1.589-1.588S387.639,276.636,388.532,276.636z M383.172,276.636
						c0.893,0,1.588,0.694,1.588,1.589c0,0.894-0.695,1.588-1.588,1.588c-0.894,0-1.589-0.694-1.589-1.588
						S382.279,276.636,383.172,276.636z M359.048,276.636c0.894,0,1.589,0.694,1.589,1.589c0,0.894-0.695,1.588-1.589,1.588
						c-0.893,0-1.588-0.694-1.588-1.588C357.361,277.332,358.155,276.636,359.048,276.636z M353.688,279.715
						c-0.894,0-1.588-0.695-1.588-1.589s0.694-1.588,1.588-1.588s1.589,0.694,1.589,1.588
						C355.277,278.92,354.581,279.715,353.688,279.715z M353.688,284.479c-0.894,0-1.588-0.695-1.588-1.589s0.694-1.588,1.588-1.588
						s1.589,0.694,1.589,1.588S354.581,284.479,353.688,284.479z M353.688,289.144c-0.894,0-1.588-0.694-1.588-1.588
						s0.694-1.588,1.588-1.588s1.589,0.694,1.589,1.588C355.277,288.35,354.581,289.144,353.688,289.144z M359.048,284.479
						c-0.893,0-1.588-0.695-1.588-1.589s0.695-1.588,1.588-1.588c0.894,0,1.589,0.694,1.589,1.588S359.942,284.479,359.048,284.479z
						 M359.048,289.144c-0.893,0-1.588-0.694-1.588-1.588s0.695-1.588,1.588-1.588c0.894,0,1.589,0.694,1.589,1.588
						C360.637,288.35,359.942,289.144,359.048,289.144z M367.884,289.144c-1.589,0-2.979-1.39-2.979-2.978v-6.452
						c0-1.589,1.39-2.979,2.979-2.979h6.452c1.688,0,2.979,1.39,2.979,2.979v6.452c0,1.588-1.291,2.978-2.979,2.978H367.884
						L367.884,289.144z M383.172,284.479c-0.894,0-1.589-0.695-1.589-1.589s0.695-1.588,1.589-1.588
						c0.893,0,1.588,0.694,1.588,1.588S384.065,284.479,383.172,284.479z M383.172,289.144c-0.894,0-1.589-0.694-1.589-1.588
						s0.695-1.588,1.589-1.588c0.893,0,1.588,0.694,1.588,1.588C384.76,288.35,384.065,289.144,383.172,289.144z M388.532,284.479
						c-0.894,0-1.589-0.695-1.589-1.589s0.695-1.588,1.589-1.588s1.588,0.694,1.588,1.588S389.426,284.479,388.532,284.479z
						 M388.532,289.144c-0.894,0-1.589-0.694-1.589-1.588s0.695-1.588,1.589-1.588s1.588,0.694,1.588,1.588
						C390.121,288.35,389.426,289.144,388.532,289.144z"/>
				</g>
			</g>
		</g>
		<g>
			<g>
				<g>
					<g>
						<path fill="#0A2249" d="M417.222,256.782c4.467,0,7.247,1.887,7.247,4.964c0,2.085-1.29,3.772-3.375,4.368
							c2.482,0.496,4.07,2.481,4.07,5.062c0,3.376-2.979,5.46-7.644,5.46h-9.729v-19.854H417.222z M412.854,264.724h4.07
							c1.489,0,2.383-0.795,2.383-2.085c0-1.291-0.894-1.985-2.383-1.985h-4.07V264.724z M412.854,272.765h4.07
							c1.887,0,3.077-0.794,3.077-2.283c0-1.291-1.19-2.185-3.077-2.185h-4.07V272.765z"/>
					</g>
					<g>
						<path fill="#0A2249" d="M457.229,266.61c0,5.758-4.566,10.225-10.722,10.225c-6.154,0-10.721-4.367-10.721-10.225
							c0-5.758,4.566-10.026,10.721-10.026S457.229,260.852,457.229,266.61z M440.948,266.71c0,3.375,2.58,5.956,5.658,5.956
							c3.077,0,5.459-2.581,5.459-5.956s-2.48-5.857-5.459-5.857C443.529,260.852,440.948,263.335,440.948,266.71z"/>
					</g>
					<g>
						<path fill="#0A2249" d="M425.065,282.394l-2.88,3.475c-1.29-1.588-3.275-2.581-4.963-2.581c-3.177,0-5.559,2.481-5.559,5.758
							c0,3.275,2.382,5.856,5.559,5.856c1.688,0,3.574-0.893,4.963-2.283l2.979,3.078c-2.084,2.184-5.261,3.673-8.239,3.673
							c-5.956,0-10.424-4.368-10.424-10.226c0-5.757,4.567-10.025,10.623-10.025C420.001,279.019,423.079,280.309,425.065,282.394z"
							/>
					</g>
					<g>
						<path fill="#0A2249" d="M436.481,293.512h-0.099h-3.872v5.56h-5.063v-19.854h8.836c5.262,0,8.238,2.481,8.238,6.949
							c0,3.077-1.29,5.261-3.572,6.353l4.169,6.553h-5.759L436.481,293.512z M436.282,289.542c2.184,0,3.475-1.092,3.475-3.177
							c0-2.084-1.291-3.077-3.475-3.077h-3.871v6.354h3.871V289.542z"/>
					</g>
					<g>
						<path fill="#0A2249" d="M453.06,283.188v3.971h9.43v3.972h-9.43v3.971h10.82v3.971h-15.884v-19.854h15.586v3.971H453.06z"/>
					</g>
					<g>
						<path fill="#0A2249" d="M484.231,299.072l-3.673-13.7l-3.773,13.7h-5.261l-6.452-19.854h5.36l3.872,14.593l3.771-14.593h4.964
							l3.872,14.593l3.871-14.593h5.162l-6.552,19.854H484.231z"/>
					</g>
				</g>
				<g>
					<rect x="400.147" y="256.584" fill="#0A2249" width="2.482" height="52.613"/>
				</g>
			</g>
			<g>
				<g>
					<rect x="428.042" y="256.782" fill="#0A2249" width="5.062" height="3.872"/>
				</g>
				<g>
					<rect x="428.042" y="262.937" fill="#0A2249" width="5.062" height="13.699"/>
				</g>
			</g>
		</g>
	</g>
	<g>
		<path fill="#0A2249" d="M407.798,302.013h0.873v5.961h2.856v0.725h-3.73L407.798,302.013L407.798,302.013z"/>
		<path fill="#0A2249" d="M413.356,302.013v6.686h-0.873v-6.686H413.356z"/>
		<path fill="#0A2249" d="M414.855,302.013h3.601v0.725h-2.728v2.222h2.52v0.714h-2.52v3.025h-0.873V302.013L414.855,302.013z"/>
		<path fill="#0A2249" d="M423.15,305.564h-2.589v2.41h2.896v0.725h-3.769v-6.686h3.62v0.725h-2.747v2.111h2.589V305.564z"/>
		<path fill="#0A2249" d="M426.575,307.647c0.387,0.248,0.942,0.437,1.537,0.437c0.883,0,1.398-0.455,1.398-1.141
			c0-0.615-0.356-0.982-1.26-1.318c-1.09-0.396-1.766-0.973-1.766-1.905c0-1.042,0.862-1.815,2.163-1.815
			c0.674,0,1.181,0.159,1.468,0.328l-0.238,0.705c-0.209-0.131-0.654-0.318-1.26-0.318c-0.912,0-1.26,0.545-1.26,1.002
			c0,0.625,0.406,0.932,1.329,1.289c1.131,0.446,1.696,0.982,1.696,1.964c0,1.031-0.754,1.935-2.332,1.935
			c-0.645,0-1.348-0.199-1.705-0.436L426.575,307.647z"/>
		<path fill="#0A2249" d="M436.24,308.491c-0.307,0.159-0.953,0.317-1.766,0.317c-1.885,0-3.294-1.191-3.294-3.393
			c0-2.104,1.419-3.512,3.492-3.512c0.823,0,1.358,0.178,1.587,0.298l-0.219,0.704c-0.316-0.159-0.783-0.277-1.34-0.277
			c-1.566,0-2.607,1.002-2.607,2.757c0,1.647,0.941,2.688,2.559,2.688c0.535,0,1.072-0.109,1.42-0.278L436.24,308.491z"/>
		<path fill="#0A2249" d="M438.197,302.013v6.686h-0.873v-6.686H438.197z"/>
		<path fill="#0A2249" d="M443.157,305.564h-2.589v2.41h2.896v0.725h-3.77v-6.686h3.62v0.725h-2.747v2.111h2.589V305.564z"/>
		<path fill="#0A2249" d="M444.589,308.699v-6.686h0.951l2.133,3.383c0.486,0.783,0.883,1.478,1.189,2.172l0.031-0.01
			c-0.08-0.893-0.1-1.707-0.1-2.738v-2.807h0.813v6.686h-0.873l-2.122-3.393c-0.467-0.744-0.914-1.508-1.24-2.231l-0.029,0.01
			c0.049,0.843,0.059,1.646,0.059,2.758v2.856H444.589z"/>
		<path fill="#0A2249" d="M455.781,308.491c-0.307,0.159-0.952,0.317-1.766,0.317c-1.885,0-3.293-1.191-3.293-3.393
			c0-2.104,1.418-3.512,3.491-3.512c0.823,0,1.359,0.178,1.587,0.298l-0.217,0.704c-0.318-0.159-0.785-0.277-1.34-0.277
			c-1.567,0-2.609,1.002-2.609,2.757c0,1.647,0.943,2.688,2.559,2.688c0.537,0,1.072-0.109,1.419-0.278L455.781,308.491z"/>
		<path fill="#0A2249" d="M460.326,305.564h-2.589v2.41h2.896v0.725h-3.768v-6.686h3.619v0.725h-2.748v2.111h2.589V305.564z"/>
		<path fill="#0A2249" d="M468.109,308.699c-0.188-0.188-0.366-0.377-0.625-0.645c-0.574,0.525-1.21,0.754-1.953,0.754
			c-1.301,0-2.055-0.873-2.055-1.875c0-0.912,0.546-1.527,1.311-1.953v-0.03c-0.338-0.438-0.565-0.923-0.565-1.399
			c0-0.812,0.595-1.646,1.705-1.646c0.834,0,1.478,0.546,1.478,1.419c0,0.704-0.406,1.26-1.468,1.785v0.03
			c0.565,0.664,1.2,1.388,1.627,1.865c0.309-0.467,0.516-1.111,0.646-1.955h0.794c-0.179,1.051-0.467,1.885-0.963,2.471
			c0.356,0.376,0.704,0.754,1.102,1.18H468.109z M465.689,308.154c0.576,0,1.051-0.259,1.368-0.606
			c-0.396-0.427-1.14-1.249-1.874-2.102c-0.367,0.228-0.863,0.653-0.863,1.358c0,0.764,0.555,1.35,1.359,1.35H465.689z
			 M465.866,302.5c-0.545,0-0.832,0.455-0.832,0.972c0,0.476,0.229,0.843,0.506,1.2c0.684-0.387,1.109-0.744,1.109-1.309
			c0-0.408-0.228-0.863-0.772-0.863H465.866L465.866,302.5z"/>
		<path fill="#0A2249" d="M472.628,302.809h-2.033v-0.734h4.949v0.734h-2.043v5.952h-0.873V302.809z"/>
		<path fill="#0A2249" d="M479.742,305.627h-2.589v2.409h2.896v0.726h-3.77v-6.687h3.621v0.724h-2.748v2.113h2.588L479.742,305.627
			L479.742,305.627z"/>
		<path fill="#0A2249" d="M485.835,308.552c-0.307,0.159-0.952,0.317-1.766,0.317c-1.885,0-3.293-1.19-3.293-3.393
			c0-2.103,1.418-3.512,3.492-3.512c0.823,0,1.358,0.179,1.586,0.298l-0.218,0.705c-0.317-0.16-0.784-0.278-1.339-0.278
			c-1.567,0-2.609,1.001-2.609,2.757c0,1.646,0.942,2.688,2.56,2.688c0.536,0,1.071-0.109,1.419-0.278L485.835,308.552z"/>
		<path fill="#0A2249" d="M487.793,302.075v2.798h3.233v-2.798h0.873v6.687h-0.873v-3.135h-3.233v3.135h-0.874v-6.687H487.793z"/>
	</g>
</g>
</svg>
