<?xml version="1.0" encoding="iso-8859-1"?>
<!-- Generator: Adobe Illustrator 19.0.0, SVG Export Plug-In . SVG Version: 6.00 Build 0)  -->
<svg version="1.1" id="Capa_1" xmlns="http://www.w3.org/2000/svg" xmlns:xlink="http://www.w3.org/1999/xlink" x="0px" y="0px"
	 viewBox="0 0 90 90" style="enable-background:new 0 0 90 90;" xml:space="preserve">
<g id="XMLID_1_">
	<path id="XMLID_60_" style="fill:#A3AABD;" d="M45.021,0.02c6.172,0.003,11.15,4.951,11.135,11.068
		c-0.015,6.158-5.133,11.279-11.219,11.225c-6.097-0.054-11.129-5.027-11.115-11.176C33.839,3.996,39.906-0.33,45.021,0.02z"/>
	<path id="XMLID_59_" style="fill:#A3AABD;" d="M43.162,84.03c0,1.782-0.032,3.332,0.013,4.88c0.023,0.817-0.29,1.092-1.091,1.085
		c-3.428-0.027-6.856-0.028-10.284,0c-0.828,0.007-1.067-0.328-1.062-1.113c0.026-4.007,0.034-8.014-0.004-12.021
		c-0.009-0.918,0.379-1.117,1.198-1.116c8.726,0.018,17.453,0.021,26.179-0.004c0.904-0.003,1.281,0.263,1.273,1.206
		c-0.031,3.962-0.026,7.925-0.004,11.887c0.005,0.852-0.303,1.174-1.177,1.164c-3.383-0.037-6.767-0.038-10.151,0
		c-0.896,0.01-1.177-0.355-1.156-1.185c0.031-1.201-0.028-2.405,0.012-3.606c0.028-0.841-0.005-0.714-0.005-1.189
		C46.11,84.066,44.17,84.03,43.162,84.03z"/>
	<path id="XMLID_58_" style="fill:#A3AABD;" d="M68.853,30.967c-16.043,0-31.729,0-47.837,0c0.863-1.008,1.447-1.812,2.151-2.492
		c2.572-2.486,5.664-3.813,9.25-3.824c8.549-0.027,17.099-0.072,25.647,0.017C62.655,24.715,66.159,26.878,68.853,30.967z"/>
	<path id="XMLID_57_" style="fill:#A3AABD;" d="M61.788,75.763c2.789,0,5.363-0.029,7.935,0.039
		c0.298,0.008,0.821,0.553,0.829,0.859c0.034,1.372,0.049,2.769-0.171,4.117c-0.317,1.937-2.412,3.428-4.414,3.343
		c-2.058-0.087-3.965-1.674-4.151-3.661C61.676,78.972,61.788,77.46,61.788,75.763z"/>
	<path id="XMLID_56_" style="fill:#A3AABD;" d="M28.175,75.772c0,1.698,0.102,3.172-0.024,4.626
		c-0.186,2.135-2.315,3.82-4.506,3.722c-2.29-0.103-4.111-1.95-4.143-4.22c-0.015-1.068-0.052-2.141,0.029-3.203
		c0.025-0.322,0.404-0.879,0.631-0.884C22.775,75.749,25.391,75.772,28.175,75.772z"/>
	<path id="XMLID_61_" style="fill:#C53536;" d="M71.968,35.137H18.032c-2.376,0-4.302,1.926-4.302,4.302v27.997
		c0,2.376,1.926,4.302,4.302,4.302h53.937c2.376,0,4.302-1.926,4.302-4.302V39.439C76.27,37.063,74.344,35.137,71.968,35.137z
		 M66.225,42.785v21.356v1.502c0,1.546-1.253,2.8-2.8,2.8h-1.502H28.258h-1.502c-1.546,0-2.8-1.253-2.8-2.8v-1.502V42.785v-1.502
		c0-1.546,1.253-2.8,2.8-2.8h1.502h33.665h1.502c1.546,0,2.8,1.253,2.8,2.8V42.785z"/>
</g>
<path id="XMLID_81_" style="fill:#D15D5E;" d="M56.381,51.972c0.553,0,1-0.447,1-1s-0.447-1-1-1h-9.088c0-0.844,0-1.52,0-2.32
	c0.072,0,9.088-0.055,9.088-0.055c0.553,0,1-0.447,1-1c0-0.552-0.447-1-1-1h-9.098c0-0.917,0-1.599,0-2.373
	c0.179,0,6.776-0.044,6.776-0.044c0.553,0,1-0.448,1-1s-0.447-1-1-1h-6.768c-0.084-0.531-0.143-0.911-0.209-1.328
	c-1.433,0-2.822,0-4.239,0c-0.056,0.486-0.1,0.862-0.154,1.328h-6.797c-0.552,0-1,0.448-1,1s0.448,1,1,1
	c0,0,6.645,0.045,6.777,0.045c0,0.865,0,1.548,0,2.372h-9.1c-0.552,0-1,0.448-1,1c0,0.553,0.448,1,1,1c0,0,8.921,0.055,9.118,0.055
	c0,0.874,0,1.547,0,2.32h-9.118c-0.552,0-1,0.447-1,1s0.448,1,1,1c0,0,9.041,0.063,9.113,0.063c0,0.829,0,1.511,0,2.324
	c-0.045,0-9.113,0.029-9.113,0.029c-0.552,0-1,0.447-1,1s0.448,1,1,1h9.149c0,0.797,0,1.444,0,2.326c-0.617,0-1.099,0-1.58,0
	c-1.827,0.001-3.654,0.017-5.481-0.001c-1.166-0.012-1.784,0.492-1.663,1.693c0.138,1.367,0.26,2.741,0.506,4.09
	c0.196,1.075,0.815,1.823,2.01,2.026c1.207,0.205,1.977-0.383,2.575-1.27c1.17-1.736,2.126-3.291,3.732-4.689
	c0,2.069,0,3.659,0,5.293c1.495,0,2.886,0,4.4,0c0-1.678,0-3.715,0-5.293c0-0.109,2.469,3.176,2.827,3.78
	c0.686,1.157,1.757,2.442,3.262,2.171c1.315-0.237,1.877-1.155,2.12-2.284c0.213-0.99,0.251-2.022,0.322-3.039
	c0.168-2.381,0.07-2.475-2.331-2.478c-2.034-0.002-4.068,0-6.148,0c0-0.896,0-1.58,0-2.326h9.111c0.553,0,1-0.447,1-1s-0.447-1-1-1
	c0,0-9.098-0.019-9.101-0.029c0-0.854,0-1.535,0-2.324C47.398,52.035,56.381,51.972,56.381,51.972z"/>
</svg>
